<svg xmlns="http://www.w3.org/2000/svg" width="512" height="512" viewBox="0 0 512 512">
  <defs>
    <linearGradient id="bg" x1="0" y1="0" x2="1" y2="1">
      <stop offset="0" stop-color="#14b8a6"/>
      <stop offset="1" stop-color="#059669"/>
    </linearGradient>
    <linearGradient id="page" x1="0" y1="0" x2="0" y2="1">
      <stop offset="0" stop-color="#ffffff"/>
      <stop offset="1" stop-color="#e8f5f2"/>
    </linearGradient>
  </defs>
  <!-- خلفية مستديرة -->
  <rect width="512" height="512" rx="112" fill="url(#bg)"/>
  <!-- ظل خفيف أسفل الكتاب -->
  <ellipse cx="256" cy="392" rx="150" ry="18" fill="#000000" opacity="0.12"/>
  <!-- كتاب مفتوح -->
  <path d="M96 148 C 160 118, 224 122, 248 142 L 248 356 C 224 336, 160 332, 96 362 Z"
        fill="url(#page)" stroke="#0b6b5d" stroke-width="10" stroke-linejoin="round"/>
  <path d="M416 148 C 352 118, 288 122, 264 142 L 264 356 C 288 336, 352 332, 416 362 Z"
        fill="url(#page)" stroke="#0b6b5d" stroke-width="10" stroke-linejoin="round"/>
  <!-- خطوط نص على الصفحات -->
  <g stroke="#0d9488" stroke-width="9" stroke-linecap="round" opacity="0.55">
    <line x1="126" y1="182" x2="216" y2="170"/>
    <line x1="128" y1="222" x2="218" y2="210"/>
    <line x1="130" y1="262" x2="212" y2="252"/>
    <line x1="386" y1="182" x2="296" y2="170"/>
    <line x1="384" y1="222" x2="294" y2="210"/>
    <line x1="382" y1="262" x2="300" y2="252"/>
  </g>
  <!-- عمود فاصل -->
  <rect x="250" y="140" width="12" height="220" rx="6" fill="#0b6b5d"/>
  <!-- علامة علامة مرجعية ذهبية -->
  <path d="M330 132 L330 210 L354 186 L378 210 L378 132 Z" fill="#fbbf24" stroke="#b45309" stroke-width="7" stroke-linejoin="round"/>
</svg>
